# xmcd
#
# Track frame offsets:
# 150
# 4734
# 27198
# 55499
# 76274
# 101895
# 124170
# 154489
# 179836
# 197724
# 230066
# 263875
#
# Disc length: 3655 seconds
#
#
# Revision: 0
# Processed by: cddbd v1.5.1PL2 Copyright (c) Steve Scherf et al.
# Submitted via: FreeRIP 2.92 
#
DISCID=aa0e450c
DTITLE=Demonic Resurrection - A Darkness Descends
DYEAR=2005
DGENRE=Death Metal
TTITLE0=Prelude To Darkness
TTITLE1=Dreams of the Dead
TTITLE2=Apocalyptic Dawn
TTITLE3=Behind the Mask of God
TTITLE4=Carnival of Depravity
TTITLE5=Spirits of the Mystic Mountains
TTITLE6=Where Shadows Lie
TTITLE7=A Darkness Descends
TTITLE8=Invoking the Demons
TTITLE9=Frozen Portrait
TTITLE10=The Summoning
TTITLE11=Overture To Glory
EXTD=
EXTT0=
EXTT1=
EXTT2=
EXTT3=
EXTT4=
EXTT5=
EXTT6=
EXTT7=
EXTT8=
EXTT9=
EXTT10=
EXTT11=
PLAYORDER=
